<svg width="30" height="30" fill="none" xmlns="http://www.w3.org/2000/svg"><path d="M25.794 0H3.922A3.922 3.922 0 000 3.922v21.872a3.922 3.922 0 003.922 3.921h21.872a3.922 3.922 0 003.921-3.921V3.922A3.922 3.922 0 0025.794 0z" fill="#232427"/><path fill-rule="evenodd" clip-rule="evenodd" d="M8.346 20.07a1.567 1.567 0 01-.744-1.334v-3.034c0-.117.03-.229.088-.328a.644.644 0 01.887-.234l6.805 3.993c.398.234.643.661.643 1.126v3.145a.775.775 0 01-1.183.668L8.346 20.07zm10.144-5.762c.398.234.643.661.643 1.126v6.38a.52.52 0 01-.264.455l-1.49.844a.305.305 0 01-.06.025v-3.543c0-.458-.238-.884-.63-1.12l-5.977-3.599v-4a.65.65 0 01.975-.561l6.803 3.993zm2.979-4.713c.4.232.645.664.645 1.128v9.32a.525.525 0 01-.272.459l-1.412.767v-6.488c0-.459-.24-.882-.629-1.118l-6.109-3.689V6.181a.647.647 0 01.973-.564l6.804 3.978z" fill="#FAFAFA"/></svg>