<svg width="35" height="35" fill="none" xmlns="http://www.w3.org/2000/svg"><path d="M20.417 2.917H8.751a2.913 2.913 0 00-2.902 2.916l-.015 23.334a2.913 2.913 0 002.902 2.916h17.515a2.925 2.925 0 002.916-2.916v-17.5l-8.75-8.75zM21.876 17.5h-5.834v1.458h4.375c.802 0 1.459.657 1.459 1.459v4.375c0 .802-.657 1.458-1.459 1.458H18.96v1.458h-2.917V26.25h-2.916v-2.917h5.833v-1.458h-4.375a1.463 1.463 0 01-1.458-1.458v-4.375c0-.802.656-1.459 1.458-1.459h1.458v-1.458h2.917v1.458h2.917V17.5zm-2.917-5.833V5.104l6.563 6.563h-6.563z" fill="#EFB657"/></svg>